# xmcd
#
# Track frame offsets:
#	150
#	18251
#	33829
#	50014
#	65972
#	82857
#	98758
#	115271
#	133489
#	147210
#	163429
#	181579
#	195772
#	211062
#	226928
#	248743
#	265506
#	288124
#
# Disc length: 4063
#
# Revision: 1
# Processed by: cddbd v1.5.1PL0 Copyright (c) Steve Scherf et al.
# Submitted via: CDex 1.51
# Normalized: r0:DSETVAR1
#
DISCID=f00fdd12
DTITLE=Various Artist - RPM Top Hits USA RJ28
DYEAR=2004
DGENRE=Jazz
TTITLE0=Boney James - Here She Comes (Edit)
TTITLE1=Shades of Soul with Chris Botti - Gazpacho (Radio Edit)
TTITLE2=Colionne, Nick - It's Been Too Long
TTITLE3=Olstead, Renee - A Love That Will Last
TTITLE4=Elliot, Richard - Your Secret Love (Vocal Edit)
TTITLE5=Chaquico, Craig - Her Boyfriend's Wedding (Radio Edit)
TTITLE6=Waters, Kim - In Deep
TTITLE7=Tisdale, Wayman - Ain't No Stoppin' Us Now
TTITLE8=Kashiwa, Jeff - Here and Now (Radio Edit)
TTITLE9=Incognito - True To Myself (Radio Edit)
TTITLE10=Meadows, Marion - Sweet Grapes
TTITLE11=Sims, Michael - Blue Skies, Green Lights (Radio Version)
TTITLE12=Botti, Chris - Back Into My Heart (Single Edit)
TTITLE13=Gain, Garry with Kirk Whalum - Don't Ask My Neighbor (Radio Edit)
TTITLE14=Fourplay - Play Around It
TTITLE15=Pieces of a Dream - It's Go Time
TTITLE16=Mariano, Torcuato - Paula
TTITLE17=Lipner, Arthur - Mood Vibe (Edit)
EXTD=YEAR: 2004
EXTT0=
EXTT1=
EXTT2=
EXTT3=
EXTT4=
EXTT5=
EXTT6=
EXTT7=
EXTT8=
EXTT9=
EXTT10=
EXTT11=
EXTT12=
EXTT13=
EXTT14=
EXTT15=
EXTT16=
EXTT17=
PLAYORDER=
